<svg xmlns="http://www.w3.org/2000/svg" viewBox="0 0 744.7 744.7"><defs><style>.cls-1{fill:#fff;}</style></defs><g id="Layer_2" data-name="Layer 2"><g id="Layer_1-2" data-name="Layer 1"><path class="cls-1" d="M153.14,626.48l66.75-79.12Q246,565.89,270.68,574.3t54.67,8.41q45.45,0,69.18-22.72t23.7-64V126.54H549.82v372q0,69.87-32.42,111.1T437.3,667.3a302.59,302.59,0,0,1-99.17,16.41Q227.51,683.71,153.14,626.48Z"/><path class="cls-1" d="M633.27,0H111.43A111.43,111.43,0,0,0,0,111.43V633.27A111.43,111.43,0,0,0,111.43,744.7H633.27A111.43,111.43,0,0,0,744.7,633.27V111.43A111.43,111.43,0,0,0,633.27,0ZM623,732.72H144A111.43,111.43,0,0,1,32.53,621.28V176.49A111.43,111.43,0,0,1,144,65.05H623A111.43,111.43,0,0,1,734.43,176.49V621.28A111.43,111.43,0,0,1,623,732.72Z"/><rect class="cls-1" x="320.98" y="126.15" width="224.27" height="93.27"/></g></g></svg>